<svg class="marks" width="647" height="259" viewBox="0 0 647 259" version="1.1" xmlns="http://www.w3.org/2000/svg" xmlns:xlink="http://www.w3.org/1999/xlink"><rect width="647" height="259" style="fill: white;"></rect><g transform="translate(42,22)"><g class="mark-group role-frame root"><g transform="translate(0,0)"><path class="background" d="M0.5,0.5h600v200h-600Z" style="fill: none; stroke: #ddd;"></path><g><g class="mark-group role-axis"><g transform="translate(0.5,0.5)"><path class="background" d="M0,0h0v0h0Z" style="pointer-events: none; fill: none;"></path><g><g class="mark-rule role-axis-grid" style="pointer-events: none;"><line transform="translate(0,200)" x2="600" y2="0" style="fill: none; stroke: #ddd; stroke-width: 1; opacity: 1;"></line><line transform="translate(0,169)" x2="600" y2="0" style="fill: none; stroke: #ddd; stroke-width: 1; opacity: 1;"></line><line transform="translate(0,138)" x2="600" y2="0" style="fill: none; stroke: #ddd; stroke-width: 1; opacity: 1;"></line><line transform="translate(0,108)" x2="600" y2="0" style="fill: none; stroke: #ddd; stroke-width: 1; opacity: 1;"></line><line transform="translate(0,77)" x2="600" y2="0" style="fill: none; stroke: #ddd; stroke-width: 1; opacity: 1;"></line><line transform="translate(0,46)" x2="600" y2="0" style="fill: none; stroke: #ddd; stroke-width: 1; opacity: 1;"></line><line transform="translate(0,15)" x2="600" y2="0" style="fill: none; stroke: #ddd; stroke-width: 1; opacity: 1;"></line></g></g><path class="foreground" d="" style="pointer-events: none; display: none; fill: none;"></path></g></g><g class="mark-group role-axis"><g transform="translate(0.5,200.5)"><path class="background" d="M0,0h0v0h0Z" style="pointer-events: none; fill: none;"></path><g><g class="mark-rule role-axis-tick" style="pointer-events: none;"><line transform="translate(0,0)" x2="0" y2="5" style="fill: none; stroke: #888; stroke-width: 1; opacity: 1;"></line><line transform="translate(45,0)" x2="0" y2="5" style="fill: none; stroke: #888; stroke-width: 1; opacity: 1;"></line><line transform="translate(91,0)" x2="0" y2="5" style="fill: none; stroke: #888; stroke-width: 1; opacity: 1;"></line><line transform="translate(136,0)" x2="0" y2="5" style="fill: none; stroke: #888; stroke-width: 1; opacity: 1;"></line><line transform="translate(182,0)" x2="0" y2="5" style="fill: none; stroke: #888; stroke-width: 1; opacity: 1;"></line><line transform="translate(227,0)" x2="0" y2="5" style="fill: none; stroke: #888; stroke-width: 1; opacity: 1;"></line><line transform="translate(273,0)" x2="0" y2="5" style="fill: none; stroke: #888; stroke-width: 1; opacity: 1;"></line><line transform="translate(318,0)" x2="0" y2="5" style="fill: none; stroke: #888; stroke-width: 1; opacity: 1;"></line><line transform="translate(364,0)" x2="0" y2="5" style="fill: none; stroke: #888; stroke-width: 1; opacity: 1;"></line><line transform="translate(409,0)" x2="0" y2="5" style="fill: none; stroke: #888; stroke-width: 1; opacity: 1;"></line><line transform="translate(455,0)" x2="0" y2="5" style="fill: none; stroke: #888; stroke-width: 1; opacity: 1;"></line><line transform="translate(500,0)" x2="0" y2="5" style="fill: none; stroke: #888; stroke-width: 1; opacity: 1;"></line><line transform="translate(545,0)" x2="0" y2="5" style="fill: none; stroke: #888; stroke-width: 1; opacity: 1;"></line><line transform="translate(591,0)" x2="0" y2="5" style="fill: none; stroke: #888; stroke-width: 1; opacity: 1;"></line></g><g class="mark-text role-axis-label" style="pointer-events: none;"><text text-anchor="start" transform="translate(0,15)" style="font-family: sans-serif; font-size: 10px; fill: #000; opacity: 1;">0</text><text text-anchor="middle" transform="translate(45.45454545454545,15)" style="font-family: sans-serif; font-size: 10px; fill: #000; opacity: 1;">50</text><text text-anchor="middle" transform="translate(90.9090909090909,15)" style="font-family: sans-serif; font-size: 10px; fill: #000; opacity: 1;">100</text><text text-anchor="middle" transform="translate(136.36363636363635,15)" style="font-family: sans-serif; font-size: 10px; fill: #000; opacity: 1;">150</text><text text-anchor="middle" transform="translate(181.8181818181818,15)" style="font-family: sans-serif; font-size: 10px; fill: #000; opacity: 1;">200</text><text text-anchor="middle" transform="translate(227.27272727272728,15)" style="font-family: sans-serif; font-size: 10px; fill: #000; opacity: 1;">250</text><text text-anchor="middle" transform="translate(272.7272727272727,15)" style="font-family: sans-serif; font-size: 10px; fill: #000; opacity: 1;">300</text><text text-anchor="middle" transform="translate(318.1818181818182,15)" style="font-family: sans-serif; font-size: 10px; fill: #000; opacity: 1;">350</text><text text-anchor="middle" transform="translate(363.6363636363636,15)" style="font-family: sans-serif; font-size: 10px; fill: #000; opacity: 1;">400</text><text text-anchor="middle" transform="translate(409.09090909090907,15)" style="font-family: sans-serif; font-size: 10px; fill: #000; opacity: 1;">450</text><text text-anchor="middle" transform="translate(454.54545454545456,15)" style="font-family: sans-serif; font-size: 10px; fill: #000; opacity: 1;">500</text><text text-anchor="middle" transform="translate(500,15)" style="font-family: sans-serif; font-size: 10px; fill: #000; opacity: 1;">550</text><text text-anchor="middle" transform="translate(545.4545454545454,15)" style="font-family: sans-serif; font-size: 10px; fill: #000; opacity: 1;">600</text><text text-anchor="middle" transform="translate(590.9090909090909,15)" style="font-family: sans-serif; font-size: 10px; fill: #000; opacity: 1;">650</text></g><g class="mark-rule role-axis-domain" style="pointer-events: none;"><line transform="translate(0,0)" x2="600" y2="0" style="fill: none; stroke: #888; stroke-width: 1; opacity: 1;"></line></g><g class="mark-text role-axis-title" style="pointer-events: none;"><text text-anchor="middle" transform="translate(300,30)" style="font-family: sans-serif; font-size: 11px; font-weight: bold; fill: #000; opacity: 1;">Price</text></g></g><path class="foreground" d="" style="pointer-events: none; display: none; fill: none;"></path></g></g><g class="mark-group role-axis"><g transform="translate(0.5,0.5)"><path class="background" d="M0,0h0v0h0Z" style="pointer-events: none; fill: none;"></path><g><g class="mark-rule role-axis-tick" style="pointer-events: none;"><line transform="translate(0,200)" x2="-5" y2="0" style="fill: none; stroke: #888; stroke-width: 1; opacity: 1;"></line><line transform="translate(0,169)" x2="-5" y2="0" style="fill: none; stroke: #888; stroke-width: 1; opacity: 1;"></line><line transform="translate(0,138)" x2="-5" y2="0" style="fill: none; stroke: #888; stroke-width: 1; opacity: 1;"></line><line transform="translate(0,108)" x2="-5" y2="0" style="fill: none; stroke: #888; stroke-width: 1; opacity: 1;"></line><line transform="translate(0,77)" x2="-5" y2="0" style="fill: none; stroke: #888; stroke-width: 1; opacity: 1;"></line><line transform="translate(0,46)" x2="-5" y2="0" style="fill: none; stroke: #888; stroke-width: 1; opacity: 1;"></line><line transform="translate(0,15)" x2="-5" y2="0" style="fill: none; stroke: #888; stroke-width: 1; opacity: 1;"></line></g><g class="mark-text role-axis-label" style="pointer-events: none;"><text text-anchor="end" transform="translate(-7,203)" style="font-family: sans-serif; font-size: 10px; fill: #000; opacity: 1;">0%</text><text text-anchor="end" transform="translate(-7,172.23076923076923)" style="font-family: sans-serif; font-size: 10px; fill: #000; opacity: 1;">1%</text><text text-anchor="end" transform="translate(-7,141.46153846153845)" style="font-family: sans-serif; font-size: 10px; fill: #000; opacity: 1;">2%</text><text text-anchor="end" transform="translate(-7,110.69230769230771)" style="font-family: sans-serif; font-size: 10px; fill: #000; opacity: 1;">3%</text><text text-anchor="end" transform="translate(-7,79.92307692307692)" style="font-family: sans-serif; font-size: 10px; fill: #000; opacity: 1;">4%</text><text text-anchor="end" transform="translate(-7,49.153846153846146)" style="font-family: sans-serif; font-size: 10px; fill: #000; opacity: 1;">5%</text><text text-anchor="end" transform="translate(-7,18.384615384615397)" style="font-family: sans-serif; font-size: 10px; fill: #000; opacity: 1;">6%</text></g><g class="mark-rule role-axis-domain" style="pointer-events: none;"><line transform="translate(0,200)" x2="0" y2="-200" style="fill: none; stroke: #888; stroke-width: 1; opacity: 1;"></line></g><g class="mark-text role-axis-title" style="pointer-events: none;"><text text-anchor="middle" transform="translate(-25.466666221618652,100) rotate(-90) translate(0,-2)" style="font-family: sans-serif; font-size: 11px; font-weight: bold; fill: #000; opacity: 1;">Probability</text></g></g><path class="foreground" d="" style="pointer-events: none; display: none; fill: none;"></path></g></g><g class="mark-rect role-mark marks"><path d="M1,200h3.545454545454546v0h-3.545454545454546Z" style="fill: #4c78a8;"></path><path d="M5.545454545454546,200h3.545454545454546v0h-3.545454545454546Z" style="fill: #4c78a8;"></path><path d="M10.090909090909092,200h3.545454545454545v0h-3.545454545454545Z" style="fill: #4c78a8;"></path><path d="M14.636363636363637,200h3.5454545454545467v0h-3.5454545454545467Z" style="fill: #4c78a8;"></path><path d="M19.181818181818183,200h3.545454545454543v0h-3.545454545454543Z" style="fill: #4c78a8;"></path><path d="M23.727272727272727,200h3.5454545454545467v0h-3.5454545454545467Z" style="fill: #4c78a8;"></path><path d="M28.272727272727273,200h3.5454545454545467v0h-3.5454545454545467Z" style="fill: #4c78a8;"></path><path d="M32.81818181818182,200h3.5454545454545467v0h-3.5454545454545467Z" style="fill: #4c78a8;"></path><path d="M37.36363636363637,200h3.5454545454545396v0h-3.5454545454545396Z" style="fill: #4c78a8;"></path><path d="M41.90909090909091,200h3.5454545454545467v0h-3.5454545454545467Z" style="fill: #4c78a8;"></path><path d="M46.45454545454545,200h3.5454545454545467v0h-3.5454545454545467Z" style="fill: #4c78a8;"></path><path d="M51,200h3.5454545454545467v0h-3.5454545454545467Z" style="fill: #4c78a8;"></path><path d="M55.54545454545455,200h3.5454545454545396v0h-3.5454545454545396Z" style="fill: #4c78a8;"></path><path d="M60.090909090909086,200h3.545454545454554v0h-3.545454545454554Z" style="fill: #4c78a8;"></path><path d="M64.63636363636364,200h3.5454545454545325v0h-3.5454545454545325Z" style="fill: #4c78a8;"></path><path d="M69.18181818181817,178.21749396715717h3.545454545454561v21.782506032842832h-3.545454545454561Z" style="fill: #4c78a8;"></path><path d="M73.72727272727273,91.75504105034005h3.5454545454545325v108.24495894965995h-3.5454545454545325Z" style="fill: #4c78a8;"></path><path d="M78.27272727272727,85.65439046617715h3.5454545454545467v114.34560953382285h-3.5454545454545467Z" style="fill: #4c78a8;"></path><path d="M82.81818181818181,86.18126520274996h3.545454545454561v113.81873479725004h-3.545454545454561Z" style="fill: #4c78a8;"></path><path d="M87.36363636363637,139.09922302903405h3.5454545454545325v60.90077697096595h-3.5454545454545325Z" style="fill: #4c78a8;"></path><path d="M91.9090909090909,198.7877379239657h3.5454545454545467v1.2122620760343068h-3.5454545454545467Z" style="fill: #4c78a8;"></path><path d="M96.45454545454545,194.95923427554897h3.5454545454545467v5.040765724451035h-3.5454545454545467Z" style="fill: #4c78a8;"></path><path d="M101,183.68112104710156h3.5454545454545467v16.318878952898444h-3.5454545454545467Z" style="fill: #4c78a8;"></path><path d="M105.54545454545455,155.76266962166594h3.5454545454545467v44.237330378334065h-3.5454545454545467Z" style="fill: #4c78a8;"></path><path d="M110.0909090909091,94.99857445393964h3.5454545454545467v105.00142554606036h-3.5454545454545467Z" style="fill: #4c78a8;"></path><path d="M114.63636363636364,16.446095279039575h3.5454545454545325v183.55390472096042h-3.5454545454545325Z" style="fill: #4c78a8;"></path><path d="M119.18181818181817,8.622464107648131h3.545454545454561v191.37753589235186h-3.545454545454561Z" style="fill: #4c78a8;"></path><path d="M123.72727272727273,8.552196327947215h3.5454545454545467v191.44780367205277h-3.5454545454545467Z" style="fill: #4c78a8;"></path><path d="M128.27272727272728,18.219820321223157h3.5454545454545325v181.78017967877685h-3.5454545454545325Z" style="fill: #4c78a8;"></path><path d="M132.8181818181818,46.06938591621304h3.5454545454545325v153.93061408378696h-3.5454545454545325Z" style="fill: #4c78a8;"></path><path d="M137.36363636363635,99.80420204901588h3.545454545454561v100.19579795098412h-3.545454545454561Z" style="fill: #4c78a8;"></path><path d="M141.9090909090909,138.6847864926239h3.545454545454561v61.315213507376086h-3.545454545454561Z" style="fill: #4c78a8;"></path><path d="M146.45454545454547,138.69012606366988h3.5454545454545325v61.30987393633012h-3.5454545454545325Z" style="fill: #4c78a8;"></path><path d="M151,138.68352303795905h3.5454545454545325v61.31647696204095h-3.5454545454545325Z" style="fill: #4c78a8;"></path><path d="M155.54545454545453,138.67837022999169h3.545454545454561v61.321629770008315h-3.545454545454561Z" style="fill: #4c78a8;"></path><path d="M160.0909090909091,138.69007583756783h3.5454545454545325v61.30992416243217h-3.5454545454545325Z" style="fill: #4c78a8;"></path><path d="M164.63636363636363,142.05734831429723h3.5454545454545325v57.94265168570277h-3.5454545454545325Z" style="fill: #4c78a8;"></path><path d="M169.18181818181816,149.22679084536153h3.5454545454545894v50.773209154638465h-3.5454545454545894Z" style="fill: #4c78a8;"></path><path d="M173.72727272727275,155.65843875668818h3.5454545454545325v44.341561243311816h-3.5454545454545325Z" style="fill: #4c78a8;"></path><path d="M178.27272727272728,162.4627575185722h3.5454545454545325v37.537242481427796h-3.5454545454545325Z" style="fill: #4c78a8;"></path><path d="M182.8181818181818,168.5743052163574h3.545454545454561v31.425694783642598h-3.545454545454561Z" style="fill: #4c78a8;"></path><path d="M187.36363636363637,175.03002020795563h3.5454545454545325v24.96997979204437h-3.5454545454545325Z" style="fill: #4c78a8;"></path><path d="M191.9090909090909,180.7755064201111h3.5454545454545325v19.2244935798889h-3.5454545454545325Z" style="fill: #4c78a8;"></path><path d="M196.45454545454544,185.1220089263628h3.545454545454561v14.87799107363719h-3.545454545454561Z" style="fill: #4c78a8;"></path><path d="M201,187.90196174701487h3.5454545454545325v12.098038252985134h-3.5454545454545325Z" style="fill: #4c78a8;"></path><path d="M205.54545454545453,188.17646885067248h3.545454545454561v11.823531149327522h-3.545454545454561Z" style="fill: #4c78a8;"></path><path d="M210.0909090909091,188.1739370650222h3.545454545454561v11.826062934977813h-3.545454545454561Z" style="fill: #4c78a8;"></path><path d="M214.63636363636365,188.17533608139942h3.5454545454545325v11.824663918600578h-3.5454545454545325Z" style="fill: #4c78a8;"></path><path d="M219.1818181818182,188.1789884455213h3.5454545454545325v11.821011554478702h-3.5454545454545325Z" style="fill: #4c78a8;"></path><path d="M223.72727272727272,188.17435984201734h3.545454545454561v11.825640157982662h-3.545454545454561Z" style="fill: #4c78a8;"></path><path d="M228.27272727272728,188.18070295984072h3.5454545454545325v11.819297040159285h-3.5454545454545325Z" style="fill: #4c78a8;"></path><path d="M232.8181818181818,188.17327388542196h3.5454545454545325v11.826726114578037h-3.5454545454545325Z" style="fill: #4c78a8;"></path><path d="M237.36363636363635,188.1747226402692h3.545454545454561v11.82527735973079h-3.545454545454561Z" style="fill: #4c78a8;"></path><path d="M241.9090909090909,188.17739437632045h3.545454545454561v11.82260562367955h-3.545454545454561Z" style="fill: #4c78a8;"></path><path d="M246.45454545454547,188.17607630686499h3.5454545454545325v11.823923693135015h-3.5454545454545325Z" style="fill: #4c78a8;"></path><path d="M251,188.17470264735482h3.545454545454561v11.82529735264518h-3.545454545454561Z" style="fill: #4c78a8;"></path><path d="M255.54545454545456,188.1748918485937h3.545454545454561v11.825108151406312h-3.545454545454561Z" style="fill: #4c78a8;"></path><path d="M260.0909090909091,188.1751532193773h3.545454545454504v11.824846780622693h-3.545454545454504Z" style="fill: #4c78a8;"></path><path d="M264.6363636363636,188.17527171396765h3.545454545454561v11.824728286032354h-3.545454545454561Z" style="fill: #4c78a8;"></path><path d="M269.1818181818182,188.17735390285955h3.545454545454504v11.82264609714045h-3.545454545454504Z" style="fill: #4c78a8;"></path><path d="M273.7272727272727,188.17651176229367h3.545454545454561v11.823488237706329h-3.545454545454561Z" style="fill: #4c78a8;"></path><path d="M278.27272727272725,188.17561549456923h3.545454545454561v11.824384505430771h-3.545454545454561Z" style="fill: #4c78a8;"></path><path d="M282.8181818181818,188.17719347191212h3.545454545454561v11.822806528087881h-3.545454545454561Z" style="fill: #4c78a8;"></path><path d="M287.3636363636364,188.17449540372974h3.545454545454561v11.825504596270264h-3.545454545454561Z" style="fill: #4c78a8;"></path><path d="M291.90909090909093,188.17508446325698h3.545454545454504v11.82491553674302h-3.545454545454504Z" style="fill: #4c78a8;"></path><path d="M296.45454545454544,188.1756447524928h3.545454545454561v11.824355247507214h-3.545454545454561Z" style="fill: #4c78a8;"></path><path d="M301,188.17875974608563h3.545454545454561v11.821240253914368h-3.545454545454561Z" style="fill: #4c78a8;"></path><path d="M305.54545454545456,188.17346552482113h3.545454545454504v11.826534475178875h-3.545454545454504Z" style="fill: #4c78a8;"></path><path d="M310.09090909090907,188.17862272147704h3.545454545454561v11.82137727852296h-3.545454545454561Z" style="fill: #4c78a8;"></path><path d="M314.6363636363636,188.17752408644816h3.545454545454561v11.822475913551841h-3.545454545454561Z" style="fill: #4c78a8;"></path><path d="M319.1818181818182,188.17462950254594h3.545454545454504v11.82537049745406h-3.545454545454504Z" style="fill: #4c78a8;"></path><path d="M323.7272727272727,188.17442518471324h3.545454545454561v11.825574815286757h-3.545454545454561Z" style="fill: #4c78a8;"></path><path d="M328.27272727272725,188.1781833649919h3.545454545454561v11.821816635008105h-3.545454545454561Z" style="fill: #4c78a8;"></path><path d="M332.8181818181818,188.17951508814502h3.545454545454504v11.820484911854976h-3.545454545454504Z" style="fill: #4c78a8;"></path><path d="M337.3636363636363,188.17379077540448h3.545454545454618v11.826209224595516h-3.545454545454618Z" style="fill: #4c78a8;"></path><path d="M341.90909090909093,188.1726467905941h3.545454545454561v11.827353209405914h-3.545454545454561Z" style="fill: #4c78a8;"></path><path d="M346.4545454545455,188.17691259584615h3.545454545454504v11.823087404153853h-3.545454545454504Z" style="fill: #4c78a8;"></path><path d="M351,188.17227033864455h3.545454545454561v11.827729661355448h-3.545454545454561Z" style="fill: #4c78a8;"></path><path d="M355.54545454545456,188.17501229371226h3.545454545454561v11.824987706287743h-3.545454545454561Z" style="fill: #4c78a8;"></path><path d="M360.0909090909091,188.17315148977514h3.545454545454504v11.826848510224863h-3.545454545454504Z" style="fill: #4c78a8;"></path><path d="M364.6363636363636,188.175514554733h3.545454545454561v11.824485445266987h-3.545454545454561Z" style="fill: #4c78a8;"></path><path d="M369.1818181818182,188.178316488544h3.545454545454561v11.821683511456001h-3.545454545454561Z" style="fill: #4c78a8;"></path><path d="M373.72727272727275,188.1779814853195h3.545454545454504v11.822018514680508h-3.545454545454504Z" style="fill: #4c78a8;"></path><path d="M378.27272727272725,188.1748894104334h3.545454545454561v11.825110589566606h-3.545454545454561Z" style="fill: #4c78a8;"></path><path d="M382.8181818181818,188.17173248048346h3.545454545454561v11.828267519516544h-3.545454545454561Z" style="fill: #4c78a8;"></path><path d="M387.3636363636364,188.1768657831685h3.545454545454504v11.823134216831505h-3.545454545454504Z" style="fill: #4c78a8;"></path><path d="M391.9090909090909,188.17723004431656h3.545454545454561v11.822769955683441h-3.545454545454561Z" style="fill: #4c78a8;"></path><path d="M396.45454545454544,188.1790991379987h3.545454545454561v11.82090086200131h-3.545454545454561Z" style="fill: #4c78a8;"></path><path d="M401,188.17594903489757h3.545454545454504v11.82405096510243h-3.545454545454504Z" style="fill: #4c78a8;"></path><path d="M405.5454545454545,188.17385465520422h3.545454545454561v11.826145344795776h-3.545454545454561Z" style="fill: #4c78a8;"></path><path d="M410.09090909090907,188.1782345663581h3.545454545454618v11.8217654336419h-3.545454545454618Z" style="fill: #4c78a8;"></path><path d="M414.6363636363637,188.1755837984854h3.545454545454504v11.824416201514595h-3.545454545454504Z" style="fill: #4c78a8;"></path><path d="M419.1818181818182,188.1769501435147h3.545454545454561v11.823049856485312h-3.545454545454561Z" style="fill: #4c78a8;"></path><path d="M423.72727272727275,188.17309102339982h3.545454545454561v11.82690897660018h-3.545454545454561Z" style="fill: #4c78a8;"></path><path d="M428.2727272727273,188.1768848008188h3.545454545454504v11.823115199181188h-3.545454545454504Z" style="fill: #4c78a8;"></path><path d="M432.8181818181818,188.1790966998384h3.545454545454561v11.820903300161604h-3.545454545454561Z" style="fill: #4c78a8;"></path><path d="M437.3636363636364,188.17516931123527h3.545454545454561v11.824830688764735h-3.545454545454561Z" style="fill: #4c78a8;"></path><path d="M441.90909090909093,188.17376151748095h3.545454545454504v11.826238482519045h-3.545454545454504Z" style="fill: #4c78a8;"></path><path d="M446.45454545454544,188.17405165855604h3.545454545454561v11.825948341443961h-3.545454545454561Z" style="fill: #4c78a8;"></path><path d="M451,188.17593976988846h3.545454545454561v11.824060230111542h-3.545454545454561Z" style="fill: #4c78a8;"></path><path d="M455.54545454545456,188.1744788242397h3.545454545454504v11.825521175760286h-3.545454545454504Z" style="fill: #4c78a8;"></path><path d="M460.09090909090907,188.17246051514755h3.545454545454561v11.827539484852451h-3.545454545454561Z" style="fill: #4c78a8;"></path><path d="M464.6363636363636,188.17375030194358h3.545454545454561v11.826249698056415h-3.545454545454561Z" style="fill: #4c78a8;"></path><path d="M469.1818181818182,188.17536338879472h3.545454545454504v11.824636611205278h-3.545454545454504Z" style="fill: #4c78a8;"></path><path d="M473.7272727272727,188.1788182619327h3.545454545454561v11.82118173806731h-3.545454545454561Z" style="fill: #4c78a8;"></path><path d="M478.27272727272725,188.17406238646134h3.545454545454561v11.825937613538656h-3.545454545454561Z" style="fill: #4c78a8;"></path><path d="M482.8181818181818,188.174845035916h3.545454545454504v11.825154964083993h-3.545454545454504Z" style="fill: #4c78a8;"></path><path d="M487.3636363636363,188.17567937436897h3.545454545454618v11.824320625631032h-3.545454545454618Z" style="fill: #4c78a8;"></path><path d="M491.90909090909093,188.66872268632088h3.545454545454561v11.331277313679124h-3.545454545454561Z" style="fill: #4c78a8;"></path><path d="M496.4545454545455,189.16691441755162h3.545454545454504v10.833085582448376h-3.545454545454504Z" style="fill: #4c78a8;"></path><path d="M501,189.660482421599h3.545454545454561v10.339517578401h-3.545454545454561Z" style="fill: #4c78a8;"></path><path d="M505.54545454545456,190.14586942259268h3.545454545454561v9.854130577407318h-3.545454545454561Z" style="fill: #4c78a8;"></path><path d="M510.0909090909091,190.62886556360107h3.545454545454504v9.371134436398933h-3.545454545454504Z" style="fill: #4c78a8;"></path><path d="M514.6363636363636,191.2261616839734h3.545454545454618v8.773838316026598h-3.545454545454618Z" style="fill: #4c78a8;"></path><path d="M519.1818181818182,191.69703919305172h3.545454545454504v8.302960806948278h-3.545454545454504Z" style="fill: #4c78a8;"></path><path d="M523.7272727272727,192.16821854637453h3.545454545454504v7.831781453625467h-3.545454545454504Z" style="fill: #4c78a8;"></path><path d="M528.2727272727273,192.63172500924912h3.545454545454504v7.368274990750876h-3.545454545454504Z" style="fill: #4c78a8;"></path><path d="M532.8181818181818,193.09269871120927h3.545454545454618v6.907301288790734h-3.545454545454618Z" style="fill: #4c78a8;"></path><path d="M537.3636363636364,193.5504872005601h3.545454545454504v6.449512799439901h-3.545454545454504Z" style="fill: #4c78a8;"></path><path d="M541.9090909090909,194.1185371005622h3.545454545454504v5.881462899437793h-3.545454545454504Z" style="fill: #4c78a8;"></path><path d="M546.4545454545454,194.56695573989947h3.545454545454618v5.43304426010053h-3.545454545454618Z" style="fill: #4c78a8;"></path><path d="M551,195.01183660864876h3.545454545454504v4.988163391351236h-3.545454545454504Z" style="fill: #4c78a8;"></path><path d="M555.5454545454545,195.45323773502503h3.545454545454504v4.546762264974973h-3.545454545454504Z" style="fill: #4c78a8;"></path><path d="M560.090909090909,195.8947388259734h3.545454545454618v4.1052611740265945h-3.545454545454618Z" style="fill: #4c78a8;"></path><path d="M564.6363636363636,196.3289741992428h3.545454545454618v3.6710258007572065h-3.545454545454618Z" style="fill: #4c78a8;"></path><path d="M569.1818181818182,196.86737704532226h3.545454545454504v3.1326229546777427h-3.545454545454504Z" style="fill: #4c78a8;"></path><path d="M573.7272727272727,197.29354503380765h3.545454545454504v2.7064549661923536h-3.545454545454504Z" style="fill: #4c78a8;"></path><path d="M578.2727272727273,197.72187957153116h3.545454545454618v2.2781204284688386h-3.545454545454618Z" style="fill: #4c78a8;"></path><path d="M582.8181818181819,198.14133871814894h3.545454545454504v1.858661281851056h-3.545454545454504Z" style="fill: #4c78a8;"></path><path d="M587.3636363636364,198.55891121633044h3.545454545454504v1.4410887836695565h-3.545454545454504Z" style="fill: #4c78a8;"></path><path d="M591.9090909090909,198.97507104443707h3.545454545454618v1.0249289555629275h-3.545454545454618Z" style="fill: #4c78a8;"></path><path d="M596.4545454545455,199.38865763816838h3.545454545454504v0.6113423618316176h-3.545454545454504Z" style="fill: #4c78a8;"></path></g><g class="mark-group role-title"><g transform="translate(300,-17)"><path class="background" d="M0,0h0v0h0Z" style="pointer-events: none; fill: none;"></path><g><g class="mark-text role-title-text" style="pointer-events: none;"><text text-anchor="middle" transform="translate(0,10)" style="font-family: sans-serif; font-size: 13px; font-weight: bold; fill: #000; opacity: 1;">Weekly Highest Price of Turnips Histogram</text></g></g><path class="foreground" d="" style="pointer-events: none; display: none; fill: none;"></path></g></g></g><path class="foreground" d="" style="display: none; fill: none;"></path></g></g></g></svg>